<?xml version="1.0" encoding="UTF-8"?>
<svg id="Layer_1" xmlns="http://www.w3.org/2000/svg" version="1.1" viewBox="0 0 500 500">
  <!-- Generator: Adobe Illustrator 29.1.0, SVG Export Plug-In . SVG Version: 2.1.0 Build 142)  -->
  <defs>
    <style>
      .st0 {
        fill: #a8edf5;
      }

      .st1 {
        fill: #d7ffaa;
      }

      .st2 {
        fill: #c0ff74;
      }

      .st3 {
        fill: #f2ffaa;
      }

      .st4 {
        isolation: isolate;
        opacity: .2;
      }

      .st4, .st5 {
        fill: #87ed82;
      }
    </style>
  </defs>
  <path class="st4" d="M448.1,332l-83.6,44.1V125.2h83.6v206.9h0ZM126.8,376.1l-83.6-4.8V125.2h83.6v251h0Z"/>
  <path d="M448.1,326.3c0-38-6.2-58.5-55.5-85.5l-185.9-101.7c-14.2-8.2-14.4-21.6,0-29.9l12.5-7.2c14.2-8.2,38.2-7.8,52.4.3l89,51.5c14.2,8.3,37.6,8.3,52,0l24.3-14.1c14.2-8.2,14.2-21.7,0-29.9L271.1,14.1c-14.2-8.3-37.6-8.3-51.8,0L53.9,109.3c-14.2,8.3-14.2,24.9,0,33.1l24.3,14.1c14.2,8.2,26.1,15,26.1,14.9s109.2,58.7,123.4,66.8c-.2.2,30.9,16.9,60.9,32.9l56.8,30.9c14.2,8.3,19,26.5,10.7,40.8-2.6,4.5-6.2,8.2-10.7,10.7l-70.8,41.7c-6.7,3.4-14.1,5.4-21.6,5.9-11,.6-22.5-1.4-30.9-6.2l-92.1-53.9c-14.2-8.2-37.7-8.2-51.8,0l-24.3,14.2c-13.4,7.8-14.1,20.6-2.2,28.5,11.8,7.8,159.9,94.3,173.8,101,13.9,6.7,35.8,6.2,49.1-1.4,0,0,109-58.2,131.7-76.9,22.7-18.7,30.4-28.9,36.9-50.4,3.4-9.4,5-19.5,5-29.7h0Z"/>
  <path class="st5" d="M283,180.8c-13.4,1-26.1,6.1-36.3,14.9-16,13.4-19,31.5-19,42.7.5.5,20.9,11.5,44.8,24.3l73.4-47.5-62.8-34.4h-.1Z"/>
  <path class="st0" d="M325.7,204.1c-10.6,1.3-30.2,5.4-44,19.3-15.7,15.5-18.9,28.8-19.7,33.6,8.3,4.5,17.6,9.4,26.5,14.2l31.8,17.4,71-48.6-65.7-36h.1Z"/>
  <path class="st1" d="M392.6,240.7l-28-15.2c-13.4,4.3-25.6,11.8-35.6,21.6-15,15-18.5,29.6-19.2,35.6l35.3,19.2c6.9,4,11.8,10.6,13.9,18.2l85.2-28.5c-5.6-18.5-19.3-33.4-51.6-51h0Z"/>
  <path class="st3" d="M447.9,332c.2-1.9.2-3.8.2-5.8,0-32.8-4.6-52.6-37.4-74.5-11.8,1.6-26.4,5.6-38,15.3-11.5,9.6-20.9,21.6-27.8,34.9l.5.3c9.1,5.3,14.9,15.2,14.9,25.7s-.2,4.2-.6,6.2l2.1,2.6,86.3-4.8h-.2Z"/>
  <path class="st2" d="M448.1,326.3c.2-8.6-.5-17.4-1.8-25.9-7.2-2.2-21.1-4.3-43,.6-16.6,3.8-33.9,17.7-43.2,26.4v.5c0,7.4-2.7,14.4-7.5,19.8,5.9-2.6,16.1-4.6,34.2-2.2,33.1,4.5,41.2,25.4,43,38.4,5.9-8.5,10.4-17.7,13.4-27.7,3.2-9.6,4.8-19.7,4.8-29.9h.1Z"/>
</svg>